<svg width="96" height="17" viewBox="0 0 96 17" fill="none" xmlns="http://www.w3.org/2000/svg">
<path d="M56.2577 9.87645V11.0023H51.5636V4.93985H56.1451V6.06574H52.9579V7.38217H55.7727V8.47342H52.9579V9.87645H56.2577ZM60.1815 11.0023L59.1595 9.57332L58.1029 11.0023H56.6306L58.4234 8.65529L56.6912 6.34289H58.2069L59.1942 7.70261L60.2075 6.34289H61.6451L59.913 8.62065L61.7144 11.0023H60.1815ZM65.3755 10.7772C65.2427 10.8753 65.0782 10.9504 64.8819 11.0023C64.6913 11.0485 64.4893 11.0716 64.2756 11.0716C63.7213 11.0716 63.2912 10.9302 62.9852 10.6472C62.6849 10.3643 62.5348 9.94862 62.5348 9.40011V7.4861H61.816V6.44681H62.5348V5.31226H63.8859V6.44681H65.0464V7.4861H63.8859V9.38279C63.8859 9.5791 63.935 9.7321 64.0331 9.8418C64.1371 9.94573 64.2814 9.9977 64.4662 9.9977C64.6798 9.9977 64.8617 9.93996 65.0118 9.82448L65.3755 10.7772ZM70.5544 8.68993C70.5544 8.70725 70.5457 8.8285 70.5284 9.05368H67.0035C67.067 9.34237 67.2171 9.57044 67.4538 9.73788C67.6906 9.90532 67.985 9.98904 68.3372 9.98904C68.5797 9.98904 68.7933 9.95439 68.9781 9.88511C69.1686 9.81005 69.3447 9.69457 69.5064 9.53868L70.2253 10.3181C69.7864 10.8205 69.1456 11.0716 68.3026 11.0716C67.7772 11.0716 67.3124 10.9706 66.9082 10.7685C66.504 10.5606 66.1923 10.2748 65.9729 9.91109C65.7534 9.54734 65.6437 9.13451 65.6437 8.67261C65.6437 8.21648 65.7506 7.80654 65.9642 7.44279C66.1836 7.07327 66.4809 6.78747 66.8562 6.58538C67.2373 6.37753 67.6617 6.2736 68.1294 6.2736C68.5855 6.2736 68.9983 6.37176 69.3678 6.56806C69.7374 6.76437 70.0261 7.04729 70.2339 7.41681C70.4475 7.78056 70.5544 8.20493 70.5544 8.68993ZM68.138 7.29556C67.832 7.29556 67.5751 7.38217 67.3672 7.55538C67.1594 7.7286 67.0323 7.96532 66.9862 8.26556H69.2812C69.235 7.9711 69.108 7.73726 68.9002 7.56404C68.6923 7.38506 68.4383 7.29556 68.138 7.29556ZM74.2859 6.2736C74.8633 6.2736 75.3281 6.44681 75.6803 6.79324C76.0382 7.13967 76.2172 7.65354 76.2172 8.33484V11.0023H74.8662V8.5427C74.8662 8.17318 74.7853 7.89892 74.6237 7.71994C74.462 7.53517 74.2282 7.44279 73.9221 7.44279C73.5815 7.44279 73.3101 7.54961 73.108 7.76324C72.906 7.9711 72.8049 8.28288 72.8049 8.69859V11.0023H71.4538V6.34289H72.7443V6.88851C72.9233 6.6922 73.1456 6.54208 73.4112 6.43815C73.6768 6.32845 73.9683 6.2736 74.2859 6.2736ZM79.0095 11.0716C78.6226 11.0716 78.2445 11.0254 77.8749 10.9331C77.5054 10.8349 77.211 10.7136 76.9915 10.5693L77.4419 9.5993C77.6498 9.7321 77.9009 9.8418 78.1954 9.92841C78.4898 10.0092 78.7785 10.0497 79.0615 10.0497C79.6331 10.0497 79.9189 9.9082 79.9189 9.62529C79.9189 9.49249 79.8409 9.39722 79.685 9.33948C79.5291 9.28175 79.2895 9.23267 78.9662 9.19225C78.5851 9.13451 78.2704 9.06812 78.0222 8.99306C77.7739 8.918 77.5574 8.7852 77.3726 8.59466C77.1936 8.40413 77.1041 8.13276 77.1041 7.78056C77.1041 7.4861 77.1879 7.22628 77.3553 7.0011C77.5285 6.77015 77.7768 6.59116 78.1001 6.46414C78.4292 6.33711 78.8161 6.2736 79.2606 6.2736C79.5898 6.2736 79.916 6.31113 80.2393 6.38619C80.5684 6.45547 80.8398 6.55363 81.0534 6.68065L80.6031 7.64199C80.1931 7.41104 79.7456 7.29556 79.2606 7.29556C78.972 7.29556 78.7554 7.33598 78.6111 7.41681C78.4668 7.49764 78.3946 7.60157 78.3946 7.7286C78.3946 7.87294 78.4725 7.97398 78.6284 8.03172C78.7843 8.08946 79.0326 8.14431 79.3732 8.19627C79.7543 8.25979 80.0661 8.32907 80.3086 8.40413C80.5511 8.47342 80.7618 8.60333 80.9408 8.79386C81.1198 8.9844 81.2093 9.24999 81.2093 9.59064C81.2093 9.87933 81.1227 10.1363 80.9495 10.3614C80.7763 10.5866 80.5222 10.7627 80.1873 10.8897C79.8582 11.011 79.4656 11.0716 79.0095 11.0716ZM82.0429 6.34289H83.394V11.0023H82.0429V6.34289ZM82.7184 5.69333C82.4702 5.69333 82.2681 5.62116 82.1122 5.47682C81.9563 5.33247 81.8783 5.15348 81.8783 4.93985C81.8783 4.72622 81.9563 4.54724 82.1122 4.40289C82.2681 4.25855 82.4702 4.18637 82.7184 4.18637C82.9667 4.18637 83.1688 4.25566 83.3247 4.39423C83.4806 4.5328 83.5585 4.70602 83.5585 4.91387C83.5585 5.13905 83.4806 5.3267 83.3247 5.47682C83.1688 5.62116 82.9667 5.69333 82.7184 5.69333ZM86.865 11.0716C86.3742 11.0716 85.9325 10.9706 85.5399 10.7685C85.1531 10.5606 84.85 10.2748 84.6305 9.91109C84.4111 9.54734 84.3014 9.13451 84.3014 8.67261C84.3014 8.21071 84.4111 7.79788 84.6305 7.43413C84.85 7.07038 85.1531 6.78747 85.5399 6.58538C85.9325 6.37753 86.3742 6.2736 86.865 6.2736C87.3558 6.2736 87.7946 6.37753 88.1814 6.58538C88.5683 6.78747 88.8714 7.07038 89.0908 7.43413C89.3102 7.79788 89.4199 8.21071 89.4199 8.67261C89.4199 9.13451 89.3102 9.54734 89.0908 9.91109C88.8714 10.2748 88.5683 10.5606 88.1814 10.7685C87.7946 10.9706 87.3558 11.0716 86.865 11.0716ZM86.865 9.96305C87.2114 9.96305 87.4943 9.84758 87.7138 9.61663C87.9389 9.3799 88.0515 9.06523 88.0515 8.67261C88.0515 8.27999 87.9389 7.96821 87.7138 7.73726C87.4943 7.50053 87.2114 7.38217 86.865 7.38217C86.5186 7.38217 86.2328 7.50053 86.0076 7.73726C85.7824 7.96821 85.6698 8.27999 85.6698 8.67261C85.6698 9.06523 85.7824 9.3799 86.0076 9.61663C86.2328 9.84758 86.5186 9.96305 86.865 9.96305ZM93.155 6.2736C93.7324 6.2736 94.1972 6.44681 94.5494 6.79324C94.9074 7.13967 95.0864 7.65354 95.0864 8.33484V11.0023H93.7353V8.5427C93.7353 8.17318 93.6545 7.89892 93.4928 7.71994C93.3311 7.53517 93.0973 7.44279 92.7913 7.44279C92.4506 7.44279 92.1793 7.54961 91.9772 7.76324C91.7751 7.9711 91.6741 8.28288 91.6741 8.69859V11.0023H90.323V6.34289H91.6134V6.88851C91.7924 6.6922 92.0147 6.54208 92.2803 6.43815C92.5459 6.32845 92.8375 6.2736 93.155 6.2736Z" fill="#F2D963"/>
<path d="M25.5139 8.68993C25.5139 8.70725 25.5053 8.8285 25.4879 9.05368H21.963C22.0266 9.34237 22.1767 9.57044 22.4134 9.73788C22.6501 9.90532 22.9446 9.98904 23.2968 9.98904C23.5393 9.98904 23.7529 9.95439 23.9377 9.88511C24.1282 9.81005 24.3043 9.69457 24.466 9.53868L25.1848 10.3181C24.746 10.8205 24.1051 11.0716 23.2621 11.0716C22.7367 11.0716 22.2719 10.9706 21.8678 10.7685C21.4636 10.5606 21.1518 10.2748 20.9324 9.91109C20.713 9.54734 20.6033 9.13451 20.6033 8.67261C20.6033 8.21648 20.7101 7.80654 20.9238 7.44279C21.1432 7.07327 21.4405 6.78747 21.8158 6.58538C22.1969 6.37753 22.6213 6.2736 23.0889 6.2736C23.5451 6.2736 23.9579 6.37176 24.3274 6.56806C24.6969 6.76437 24.9856 7.04729 25.1935 7.41681C25.4071 7.78056 25.5139 8.20493 25.5139 8.68993ZM23.0976 7.29556C22.7916 7.29556 22.5346 7.38217 22.3268 7.55538C22.1189 7.7286 21.9919 7.96532 21.9457 8.26556H24.2408C24.1946 7.9711 24.0676 7.73726 23.8597 7.56404C23.6519 7.38506 23.3978 7.29556 23.0976 7.29556ZM26.5087 4.93985H27.9117V9.85913H30.9516V11.0023H26.5087V4.93985ZM33.5704 6.2736C34.2921 6.2736 34.8464 6.44681 35.2332 6.79324C35.6201 7.1339 35.8135 7.65065 35.8135 8.34351V11.0023H34.5491V10.4221C34.295 10.8551 33.8216 11.0716 33.1287 11.0716C32.7707 11.0716 32.4589 11.011 32.1933 10.8897C31.9335 10.7685 31.7343 10.6011 31.5958 10.3874C31.4572 10.1738 31.3879 9.9313 31.3879 9.65993C31.3879 9.2269 31.5496 8.88624 31.8729 8.63797C32.202 8.3897 32.7072 8.26556 33.3885 8.26556H34.4624C34.4624 7.9711 34.373 7.74592 34.194 7.59003C34.015 7.42836 33.7465 7.34753 33.3885 7.34753C33.1402 7.34753 32.8949 7.38794 32.6524 7.46878C32.4156 7.54383 32.2136 7.64776 32.0461 7.78056L31.5611 6.83655C31.8152 6.65756 32.1183 6.51899 32.4705 6.42083C32.8285 6.32268 33.1951 6.2736 33.5704 6.2736ZM33.4665 10.1622C33.6974 10.1622 33.9024 10.1103 34.0814 10.0064C34.2604 9.89666 34.3874 9.73788 34.4624 9.53002V9.05368H33.5358C32.9815 9.05368 32.7043 9.23556 32.7043 9.5993C32.7043 9.77252 32.7707 9.91109 32.9035 10.015C33.0421 10.1132 33.2297 10.1622 33.4665 10.1622ZM39.8683 6.2736C40.4457 6.2736 40.9105 6.44681 41.2627 6.79324C41.6207 7.13967 41.7997 7.65354 41.7997 8.33484V11.0023H40.4486V8.5427C40.4486 8.17318 40.3678 7.89892 40.2061 7.71994C40.0444 7.53517 39.8106 7.44279 39.5046 7.44279C39.1639 7.44279 38.8926 7.54961 38.6905 7.76324C38.4884 7.9711 38.3874 8.28288 38.3874 8.69859V11.0023H37.0363V6.34289H38.3267V6.88851C38.5057 6.6922 38.728 6.54208 38.9936 6.43815C39.2592 6.32845 39.5508 6.2736 39.8683 6.2736ZM47.8818 6.34289V10.2229C47.8818 11.0774 47.6595 11.7125 47.2149 12.1282C46.7703 12.5439 46.1208 12.7518 45.2662 12.7518C44.8159 12.7518 44.3886 12.6969 43.9845 12.5872C43.5803 12.4775 43.2454 12.3188 42.9798 12.1109L43.5168 11.1409C43.7131 11.3026 43.9614 11.4296 44.2616 11.522C44.5618 11.6201 44.8621 11.6692 45.1623 11.6692C45.63 11.6692 45.9735 11.5624 46.1929 11.3488C46.4181 11.1409 46.5307 10.8233 46.5307 10.3961V10.1969C46.1785 10.5837 45.6877 10.7772 45.0584 10.7772C44.6311 10.7772 44.2385 10.6848 43.8805 10.5C43.5283 10.3095 43.2483 10.0439 43.0405 9.70323C42.8326 9.36258 42.7287 8.96996 42.7287 8.52538C42.7287 8.0808 42.8326 7.68818 43.0405 7.34753C43.2483 7.00687 43.5283 6.74416 43.8805 6.5594C44.2385 6.36887 44.6311 6.2736 45.0584 6.2736C45.7339 6.2736 46.2478 6.49589 46.6 6.94047V6.34289H47.8818ZM45.3269 9.66859C45.6848 9.66859 45.9764 9.56466 46.2016 9.35681C46.4326 9.14318 46.548 8.86603 46.548 8.52538C46.548 8.18473 46.4326 7.91047 46.2016 7.70261C45.9764 7.48898 45.6848 7.38217 45.3269 7.38217C44.9689 7.38217 44.6744 7.48898 44.4435 7.70261C44.2125 7.91047 44.0971 8.18473 44.0971 8.52538C44.0971 8.86603 44.2125 9.14318 44.4435 9.35681C44.6744 9.56466 44.9689 9.66859 45.3269 9.66859Z" fill="#637CF2"/>
<path fill-rule="evenodd" clip-rule="evenodd" d="M15.3903 4.12482C17.6676 8.06925 16.3162 13.113 12.3717 15.3903C8.75604 17.4778 4.21669 16.5162 1.73109 13.3034C1.77038 13.2808 1.80579 13.2605 1.83365 13.2446C2.01886 13.1392 3.28929 12.4072 4.14727 11.9116L4.16376 11.9021L4.16615 11.9053C4.51513 12.3695 5.11826 12.9029 5.66031 13.2267C6.05154 13.4605 6.58566 13.6788 7.05214 13.7956C8.21676 14.0873 9.41494 13.9949 10.5702 13.5243C10.9011 13.3895 11.4397 13.1125 11.6905 12.9482C12.7286 12.2681 13.7469 11.0373 14.0661 10.077C14.2715 9.45907 13.9113 8.87683 13.2235 8.71487C12.8104 8.61765 12.4247 8.73301 12.0814 9.05642C11.9403 9.18944 11.8887 9.26163 11.7735 9.48793C11.3544 10.311 10.8335 10.8548 10.1225 11.2116C9.81013 11.3684 9.57081 11.4595 9.2551 11.5418C9.01652 11.604 8.96594 11.6085 8.50013 11.6085C7.93697 11.6085 7.81932 11.5891 7.38093 11.424C7.0066 11.2832 6.59744 11.0291 6.37301 10.798L6.27944 10.7017L6.50696 10.5685C6.63209 10.4952 6.81119 10.3917 6.90494 10.3383C7.09015 10.2329 8.36058 9.50091 9.21858 9.00527C9.71992 8.71571 9.93795 8.59003 11.1912 7.86843C11.4591 7.71418 11.8427 7.49313 12.0436 7.37716C12.4795 7.12567 12.6518 6.97064 12.7751 6.71899C12.9356 6.39145 12.9354 6.05457 12.7745 5.72163C12.5998 5.36017 12.1501 4.73531 11.7605 4.31275C11.6751 4.22014 11.4923 4.04783 11.3542 3.92979C10.5625 3.253 9.70327 2.84578 8.82158 2.72943C8.48808 2.68542 7.82369 2.68567 7.50163 2.7299C6.78195 2.82879 5.97383 3.15206 5.23592 3.63634C4.33141 4.22992 3.70122 4.94605 3.25103 5.89194C2.93107 6.56418 2.78707 7.16433 2.76076 7.93528C2.73782 8.60693 2.85548 9.34928 3.07864 9.94166C3.08741 9.96302 3.09642 9.98461 3.10566 10.0064L2.8687 10.1429C2.6477 10.2701 2.3244 10.4565 2.15026 10.5573C1.97614 10.6581 1.73503 10.7971 1.61447 10.8662C1.17865 11.1159 0.860843 11.2984 0.637714 11.4272C-0.943625 7.6547 0.489123 3.20533 4.12482 1.10625C8.06927 -1.17106 13.113 0.180389 15.3903 4.12482ZM8.5123 5.06821C8.89666 5.16151 9.22099 5.30312 9.53505 5.5148C9.74317 5.65505 10.093 5.977 10.0661 6.00345C10.0554 6.01402 9.84931 6.1362 9.60823 6.27499C9.36713 6.41372 8.98354 6.63486 8.75584 6.76632C8.52814 6.89782 8.16102 7.10943 7.93999 7.23657C7.71896 7.36373 7.39567 7.55022 7.22157 7.651C7.04743 7.75181 6.8063 7.8908 6.68578 7.95988C5.66711 8.54359 5.2931 8.76005 5.26615 8.7815C5.21433 8.82264 5.19236 8.77532 5.14985 8.53104C5.08863 8.17951 5.11155 7.57992 5.19867 7.25414C5.4088 6.46804 5.88323 5.88935 6.7084 5.41251C7.32911 5.05384 7.95833 4.93375 8.5123 5.06821Z" fill="#637CF2"/>
</svg>
