<svg width="62" height="17" viewBox="0 0 62 17" fill="none" xmlns="http://www.w3.org/2000/svg">
<path opacity="0.5" fill-rule="evenodd" clip-rule="evenodd" d="M0.351318 8.63929V16.8524H1.10701C1.76737 16.8524 2.48886 16.7957 2.86715 16.7139L2.98545 16.6884L2.99889 12.11L3.01238 7.5316L3.18121 8.04492C3.27406 8.32725 3.626 9.38495 3.96325 10.3954C4.30054 11.4058 4.87407 13.1322 5.23776 14.2318C5.60151 15.3313 5.91683 16.2514 5.93849 16.2763C5.97448 16.3177 8.42424 16.0753 8.63749 16.0091C8.72475 15.9821 8.72971 15.5633 8.72971 8.2034V0.426193H7.46504H6.20038V5.04606C6.20038 7.58699 6.18031 9.66593 6.1557 9.66593C6.1098 9.66593 5.93201 9.18811 5.33151 7.45055C5.14149 6.90076 4.91664 6.25641 4.83186 6.01866C4.74702 5.78092 4.5217 5.13657 4.33105 4.58677C4.14046 4.03698 3.9027 3.35616 3.80279 3.07384C3.65593 2.65886 2.99752 0.763092 2.90673 0.493735C2.88934 0.442241 2.58339 0.426193 1.61761 0.426193H0.351318V8.63929ZM11.259 8.10166V15.7771L11.562 15.7459C11.8664 15.7147 12.6026 15.6559 13.9728 15.5535C15.3148 15.4532 17.9211 15.2339 18.1488 15.202L18.3728 15.1707V13.9313V12.6918L18.0961 12.6921C17.7482 12.6923 16.4087 12.7749 14.9862 12.8835C14.3843 12.9295 13.8686 12.9524 13.8401 12.9344C13.8078 12.9139 13.7884 12.1839 13.7884 10.9932C13.7884 9.46757 13.8025 9.0728 13.8587 9.02493C13.9061 8.98462 14.4702 8.96036 15.5844 8.95074L17.2398 8.93647V7.63967V6.34286H15.5273H13.8147V4.58677V2.83069L16.0937 2.81658L18.3728 2.80253V1.61434V0.426193H14.8159H11.259V8.10166ZM20.059 1.61493V2.80367H21.4027H22.7464V8.91654V15.0294L22.944 14.9959C23.0527 14.9775 23.6336 14.9621 24.235 14.9618L25.3284 14.9612V8.88244V2.80367H26.6721H28.0158V1.61493V0.426193H24.0374H20.059V1.61493ZM29.702 7.61265V14.7991H30.9399H32.1778L32.1914 11.8138L32.205 8.82841L33.9571 8.8142L35.7092 8.79993V7.50388V6.20778H33.9439H32.1787V4.50572V2.80367H34.5235H36.8684V1.61493V0.426193H33.2852H29.702V7.61265ZM38.502 7.71067V14.9951L40.3331 15.0618C41.3402 15.0985 42.8874 15.1756 43.7714 15.2332C44.6553 15.2908 45.3968 15.3383 45.419 15.3387C45.4413 15.3391 45.4532 14.7619 45.4454 14.0562L45.4313 12.7729L45.0361 12.7383C44.8187 12.7193 44.0243 12.6748 43.2708 12.6393C42.5173 12.6039 41.711 12.5587 41.4792 12.5388L41.0576 12.5027L41.0443 6.46444L41.0308 0.426193H39.7664H38.502V7.71067ZM47.6311 7.97738L47.6444 15.5286L47.9079 15.5412C48.3933 15.5644 49.697 15.6659 49.9234 15.6981L50.1474 15.7299V8.0781V0.426193H48.8826H47.6177L47.6311 7.97738ZM52.5186 0.445591C52.5186 0.489629 53.2215 2.38118 53.8767 4.10047C54.2882 5.18006 54.6712 6.19692 55.1355 7.44229C55.2613 7.77951 55.3641 8.08663 55.3641 8.12478C55.3641 8.16288 55.1253 8.75017 54.8335 9.4298C54.5416 10.1095 54.1883 10.933 54.0482 11.2599C53.6653 12.1537 52.6469 14.5279 52.3491 15.2214C52.2046 15.5577 52.0948 15.8409 52.1049 15.8507C52.1151 15.8605 52.6925 15.9334 53.3881 16.0125C54.0837 16.0916 54.6942 16.1687 54.745 16.1838C54.7957 16.1989 54.8372 16.2026 54.8372 16.1921C54.8372 16.1639 55.1181 15.4847 55.7598 13.9616C56.0728 13.2186 56.4025 12.4303 56.4925 12.2098C56.5825 11.9893 56.6796 11.8015 56.7083 11.7925C56.737 11.7835 56.8762 12.0855 57.0176 12.4636C57.3293 13.2975 57.668 14.1918 57.9737 14.9882C58.0992 15.3151 58.2775 15.7893 58.3701 16.0419C58.4627 16.2945 58.5653 16.5279 58.598 16.5606C58.7171 16.6794 60.0969 16.8602 60.7479 16.8423L61.3629 16.8254L60.8118 15.3394C59.9789 13.0937 59.8012 12.6125 59.5545 11.9353C59.43 11.5936 59.0765 10.6287 58.7689 9.79118C58.4613 8.95366 58.2096 8.24279 58.2096 8.21151C58.2096 8.18022 58.4854 7.47951 58.8225 6.65437C59.1596 5.82922 59.4882 5.02039 59.5527 4.85694C59.6173 4.69349 60.0321 3.67226 60.4745 2.58753C60.9169 1.50281 61.2907 0.572354 61.3051 0.519833C61.3298 0.43003 61.2489 0.425221 59.9454 0.438783L58.5596 0.45321L58.4135 0.804428C58.3333 0.997598 58.1344 1.4839 57.9716 1.8851C57.8088 2.2863 57.5855 2.83339 57.4752 3.10085C57.365 3.36832 57.1838 3.8121 57.0725 4.08696C56.9612 4.36189 56.8572 4.58677 56.8414 4.58677C56.8256 4.58677 56.7563 4.43483 56.6874 4.24907C56.6186 4.06335 56.4087 3.51016 56.2211 3.0198C55.8883 2.14975 55.6855 1.61358 55.3884 0.817936L55.2421 0.426193H53.8804C53.1314 0.426193 52.5186 0.434893 52.5186 0.445591Z" fill="white"/>
</svg>
