<svg width="88" height="92" viewBox="0 0 88 92" fill="none" xmlns="http://www.w3.org/2000/svg">
<ellipse opacity="0.5" cx="43.857" cy="82.7483" rx="39.3055" ry="9.25172" fill="#191A1F"/>
<path d="M75.9545 26.4295H11.9639C11.0173 26.4295 10.08 26.6159 9.20551 26.9782C8.33099 27.3404 7.53638 27.8714 6.86705 28.5407C6.19772 29.21 5.66678 30.0046 5.30454 30.8792C4.9423 31.7537 4.75586 32.691 4.75586 33.6376C4.75586 34.5841 4.9423 35.5214 5.30454 36.396C5.66678 37.2705 6.19772 38.0651 6.86705 38.7344C7.53638 39.4037 8.33099 39.9347 9.20551 40.2969C10.08 40.6592 11.0173 40.8456 11.9639 40.8456C12.4012 40.8456 12.8217 40.7903 13.2373 40.7183L13.1989 40.8456L14.7294 74.4928C14.9673 79.7738 19.4891 84.0939 24.775 84.0939H63.2179C68.5038 84.0939 73.0257 79.7738 73.2659 74.4928L74.794 40.8456L74.758 40.7255C75.1496 40.7903 75.5437 40.8456 75.9545 40.8456C76.9011 40.8456 77.8384 40.6592 78.7129 40.2969C79.5875 39.9347 80.3821 39.4037 81.0514 38.7344C81.7207 38.0651 82.2517 37.2705 82.6139 36.396C82.9761 35.5214 83.1626 34.5841 83.1626 33.6376C83.1626 32.691 82.9761 31.7537 82.6139 30.8792C82.2517 30.0046 81.7207 29.21 81.0514 28.5407C80.3821 27.8714 79.5875 27.3404 78.7129 26.9782C77.8384 26.6159 76.9011 26.4295 75.9545 26.4295Z" fill="#E1E8ED"/>
<path d="M69.6282 40.8456V81.6648C71.7018 79.9012 73.0977 77.3495 73.213 74.4904L74.8469 40.8456H69.6282ZM55.2122 40.8456H62.4202V84.0939H55.2122V40.8456ZM40.7961 84.0939V40.8456H48.0041V84.0939H40.7961ZM26.38 40.8456H33.588V84.0939H26.38V40.8456ZM13.146 40.8456L14.7798 74.4904C14.9096 77.7148 16.6443 80.5643 19.1719 82.3087V40.8456H13.146Z" fill="#DA2F47"/>
<path opacity="0.6" d="M13.146 40.8456L13.3791 45.651H74.6114L74.8469 40.8456H13.146Z" fill="#99AAB5"/>
<path d="M75.0608 26.5977C75.1642 26.1556 75.2314 25.7015 75.2314 25.2281C75.2314 23.6087 74.5827 22.1431 73.5399 21.0643C74.5539 20.4252 75.2314 19.3055 75.2314 18.0201C75.2305 17.4314 75.0854 16.8519 74.8088 16.3322C74.5322 15.8126 74.1325 15.3686 73.6446 15.0391C73.1568 14.7096 72.5956 14.5046 72.0103 14.4421C71.4249 14.3796 70.8332 14.4614 70.2867 14.6804C70.1229 14.075 69.8034 13.523 69.3599 13.0795C68.9164 12.6361 68.3645 12.3165 67.7591 12.1527C67.9781 11.6063 68.0599 11.0145 67.9974 10.4292C67.9348 9.84381 67.7298 9.28268 67.4003 8.79484C67.0708 8.30699 66.6269 7.90729 66.1072 7.63067C65.5876 7.35405 65.0081 7.20894 64.4194 7.20802C63.9605 7.20802 63.5256 7.30172 63.1219 7.4579C63.0001 6.66076 62.7187 5.8964 62.2945 5.21057C61.8704 4.52473 61.3122 3.93152 60.6535 3.46643C59.9947 3.00135 59.2489 2.67396 58.4606 2.50385C57.6724 2.33374 56.8579 2.32442 56.066 2.47643C55.274 2.62845 54.5209 2.93868 53.8517 3.38856C53.1824 3.83844 52.6108 4.41871 52.1711 5.09466C51.7314 5.7706 51.4325 6.52832 51.2925 7.32246C51.1524 8.11659 51.174 8.93083 51.356 9.71642C49.8183 9.98792 48.4968 10.8433 47.6006 12.0446C47.0457 11.2915 46.3219 10.6789 45.4873 10.2562C44.6528 9.83354 43.7307 9.61244 42.7952 9.6107C41.2022 9.6107 39.6743 10.2435 38.5478 11.37C37.4214 12.4965 36.7885 14.0243 36.7885 15.6174L36.7909 15.6462C36.0521 15.0804 35.1902 14.6968 34.2753 14.5266C34.0225 13.147 33.2941 11.8998 32.2168 11.0016C31.1396 10.1035 29.7817 9.61132 28.3791 9.6107C26.9731 9.61168 25.6121 10.1067 24.5339 11.0092C23.4558 11.9117 22.729 13.1643 22.4806 14.5482C22.0482 14.47 21.6104 14.4258 21.1711 14.4161C18.9408 14.4161 16.8018 15.3021 15.2248 16.8791C13.6477 18.4562 12.7617 20.5951 12.7617 22.8255C12.7617 24.1349 13.0861 25.3579 13.6195 26.4631C12.6812 26.5266 11.8052 26.9554 11.1796 27.6577C10.5541 28.3599 10.2289 29.2794 10.2739 30.2188C10.3189 31.1581 10.7305 32.0424 11.4202 32.6816C12.11 33.3208 13.023 33.664 13.963 33.6375H74.0301C74.8966 33.6432 75.736 33.3355 76.3935 32.771C77.051 32.2065 77.4823 31.4234 77.6078 30.566C77.7334 29.7086 77.5447 28.8347 77.0766 28.1054C76.6086 27.3761 75.8926 26.8406 75.0608 26.5977Z" fill="#FFD983"/>
<path d="M68.0233 21.6241C69.3503 21.6241 70.426 20.5484 70.426 19.2215C70.426 17.8945 69.3503 16.8188 68.0233 16.8188C66.6963 16.8188 65.6206 17.8945 65.6206 19.2215C65.6206 20.5484 66.6963 21.6241 68.0233 21.6241Z" fill="#FFAC33"/>
<path d="M59.6138 16.8188C61.6042 16.8188 63.2178 15.2052 63.2178 13.2148C63.2178 11.2243 61.6042 9.61073 59.6138 9.61073C57.6233 9.61073 56.0098 11.2243 56.0098 13.2148C56.0098 15.2052 57.6233 16.8188 59.6138 16.8188Z" fill="#FFAC33"/>
<path d="M29.5804 19.2215C30.9074 19.2215 31.9831 18.1457 31.9831 16.8188C31.9831 15.4918 30.9074 14.4161 29.5804 14.4161C28.2535 14.4161 27.1777 15.4918 27.1777 16.8188C27.1777 18.1457 28.2535 19.2215 29.5804 19.2215Z" fill="#FFAC33"/>
<path d="M75.2314 30.0335C75.2315 29.1815 74.9291 28.3571 74.3781 27.7071C73.8271 27.0572 73.0633 26.624 72.2227 26.4847C71.3821 26.3454 70.5194 26.509 69.7882 26.9464C69.0569 27.3837 68.5048 28.0665 68.2299 28.873C68.1603 28.8682 68.0978 28.8322 68.0233 28.8322C67.3861 28.8322 66.7749 29.0853 66.3244 29.5359C65.8738 29.9865 65.6206 30.5976 65.6206 31.2349H75.0103C75.1449 30.8576 75.2314 30.4564 75.2314 30.0335ZM23.5737 28.8322C24.0494 28.8322 24.4987 28.9283 24.9144 29.0965C25.1385 28.2515 25.6628 27.5172 26.3893 27.0309C27.1157 26.5446 27.9945 26.3397 28.8611 26.4546C29.7277 26.5695 30.5227 26.9962 31.0973 27.655C31.672 28.3137 31.9869 29.1593 31.9831 30.0335C31.9831 30.4564 31.8966 30.8576 31.762 31.2349H41.8149C41.6726 30.8501 41.5978 30.4437 41.5938 30.0335C41.5938 29.0777 41.9735 28.161 42.6494 27.4851C43.3253 26.8092 44.242 26.4295 45.1978 26.4295C45.7673 26.4295 46.3007 26.5736 46.7788 26.8091C46.5323 26.3184 46.4024 25.7773 46.3992 25.2281C46.3971 24.6958 46.513 24.1696 46.7386 23.6873C46.9641 23.2051 47.2937 22.7788 47.7036 22.4391C48.1135 22.0995 48.5936 21.8548 49.1094 21.7228C49.6251 21.5908 50.1637 21.5746 50.6864 21.6755C51.2091 21.7765 51.703 21.992 52.1325 22.3065C52.562 22.621 52.9165 23.0268 53.1705 23.4947C53.4245 23.9626 53.5717 24.4809 53.6015 25.0124C53.6313 25.544 53.543 26.0755 53.3429 26.5688C54.8758 26.9821 56.0099 28.3685 56.0099 30.0335C56.0099 30.4564 55.9234 30.8576 55.7889 31.2349H62.92L61.5601 30.0335C62.5692 29.1517 63.2179 27.8735 63.2179 26.4295C63.2179 25.155 62.7117 23.9328 61.8105 23.0316C60.9093 22.1304 59.687 21.6241 58.4126 21.6241C57.5384 21.6277 56.6822 21.8721 55.9378 22.3305C55.9739 22.0975 56.0099 21.8668 56.0099 21.6241C56.012 20.5267 55.6379 19.4618 54.9499 18.6068C54.2619 17.7518 53.3016 17.1585 52.2292 16.9258C51.1567 16.6931 50.0369 16.8351 49.0565 17.328C48.076 17.821 47.2942 18.6351 46.8413 19.6347C46.3345 19.3672 45.7708 19.2255 45.1978 19.2214C44.6091 19.2224 44.0296 19.3675 43.51 19.6441C42.9903 19.9207 42.5464 20.3204 42.2169 20.8083C41.8874 21.2961 41.6824 21.8572 41.6198 22.4426C41.5573 23.028 41.6391 23.6197 41.8581 24.1662C40.3252 24.5818 39.1911 25.9682 39.1911 27.6308C39.1911 28.1066 39.2872 28.5559 39.4554 28.9715C38.9109 29.1183 38.4087 29.3916 37.9898 29.7692C37.3335 29.1686 36.4767 28.8345 35.5871 28.8322C35.0177 28.8322 34.4843 28.9763 34.0037 29.2142C34.2416 28.7337 34.3858 28.2003 34.3858 27.6308C34.3848 27.0421 34.2397 26.4626 33.9631 25.943C33.6865 25.4233 33.2868 24.9793 32.7989 24.6499C32.3111 24.3204 31.75 24.1154 31.1646 24.0528C30.5793 23.9903 29.9875 24.0721 29.441 24.2911C29.3139 23.8174 29.0913 23.3747 28.7867 22.9903C28.4821 22.6059 28.1021 22.2879 27.67 22.0559C27.2379 21.8239 26.7629 21.6827 26.2742 21.6411C25.7855 21.5995 25.2935 21.6584 24.8284 21.8141C24.3634 21.9698 23.9351 22.219 23.5699 22.5464C23.2048 22.8738 22.9105 23.2725 22.7051 23.7179C22.4998 24.1633 22.3878 24.646 22.3761 25.1363C22.3643 25.6266 22.453 26.1141 22.6366 26.5688C22.0921 26.7156 21.5899 26.9889 21.171 27.3665C20.5147 26.7659 19.658 26.4318 18.7683 26.4295C17.8125 26.4295 16.8958 26.8092 16.2199 27.4851C15.544 28.161 15.1643 29.0777 15.1643 30.0335C15.1643 30.4564 15.2508 30.8576 15.3854 31.2349H20.1907C20.6881 29.8389 22.0071 28.8322 23.5737 28.8322Z" fill="#FFAC33"/>
<path d="M10.3591 31.2349V33.6375C10.3591 34.2748 10.6123 34.8859 11.0629 35.3365C11.5135 35.7871 12.1246 36.0402 12.7618 36.0402H75.2315C75.8688 36.0402 76.4799 35.7871 76.9305 35.3365C77.3811 34.8859 77.6342 34.2748 77.6342 33.6375V31.2349H10.3591Z" fill="white"/>
</svg>
