<svg width="80" height="17" viewBox="0 0 80 17" fill="none" xmlns="http://www.w3.org/2000/svg">
<path opacity="0.5" fill-rule="evenodd" clip-rule="evenodd" d="M6.36994 0.0738092C3.30395 0.267669 2.22938 0.596677 1.52955 1.55597C0.92981 2.37821 0.552657 5.09483 0.551517 8.60068C0.550233 12.0792 0.954051 14.2725 1.74101 15.0619C2.83682 16.1609 3.9064 16.3141 11.1467 16.408C16.8939 16.4826 21.3381 16.3242 22.6531 15.9979C23.5685 15.7708 24.324 15.2393 24.6847 14.5683C25.2912 13.4404 25.705 8.35879 25.4239 5.48917C25.0298 1.46343 24.4279 0.611558 21.6985 0.215721C20.3952 0.0267309 8.81138 -0.0805483 6.36994 0.0738092ZM64.6183 7.92426V15.3648H65.61H66.6016L66.6953 14.8913C66.7468 14.6309 66.8188 14.4178 66.8553 14.4178C66.8918 14.4178 67.1127 14.599 67.3459 14.8204C67.8372 15.2863 68.7395 15.5581 69.4034 15.4399C70.4118 15.2604 71.0459 14.4128 71.3301 12.8648C71.5465 11.6853 71.4259 6.8631 71.1611 6.11404C70.6144 4.56695 68.8628 4.21278 67.5286 5.3796L66.8998 5.92952V3.20655V0.483716H65.759H64.6183V7.92426ZM28.115 1.16568C28.115 1.31692 29.155 4.87026 30.1326 8.05954C30.7242 9.98962 30.7352 10.0635 30.8147 12.6592L30.8956 15.2972L32.0719 15.3364L33.2483 15.3758V13.1343V10.8926L33.9761 8.42765C35.7023 2.58127 36.0974 1.22195 36.0987 1.12631C36.0996 1.07057 35.5547 1.02485 34.8881 1.02485C34.2215 1.02485 33.6761 1.0473 33.6761 1.07477C33.6761 1.10223 33.3935 2.3655 33.0483 3.88188C32.7029 5.3984 32.3747 6.92899 32.3188 7.28329C32.263 7.63773 32.171 7.9547 32.1147 7.98771C32.0583 8.02085 31.9362 7.63963 31.8434 7.14057C31.7507 6.64151 31.4102 5.06141 31.0868 3.62904L30.4989 1.02485H29.307C28.5763 1.02485 28.115 1.07937 28.115 1.16568ZM49.7889 1.97183V2.9188H51.0009H52.2129V9.14181V15.3648H53.4249H54.637V9.14181V2.9188H55.849H57.061V1.97183V1.02485H53.4249H49.7889V1.97183ZM11.2768 4.9287C11.6367 5.14136 13.0699 5.9375 14.462 6.6982C15.8541 7.45875 16.993 8.13233 16.993 8.19483C16.993 8.25733 15.8541 8.9309 14.462 9.69146C13.0699 10.4522 11.6367 11.2483 11.2768 11.461C10.917 11.6735 10.5802 11.8475 10.5282 11.8475C10.4763 11.8475 10.4338 10.2038 10.4338 8.19483C10.4338 6.18588 10.4763 4.5422 10.5282 4.5422C10.5802 4.5422 10.917 4.71617 11.2768 4.9287ZM38.0023 4.79869C36.8951 5.06939 36.1352 5.78625 35.779 6.89625C35.5356 7.65491 35.5356 12.6579 35.779 13.4166C36.0344 14.2126 36.5201 14.8291 37.1251 15.1252C38.2591 15.6803 40.2427 15.5476 41.1054 14.8589C42.0388 14.1139 42.372 12.8587 42.372 10.0888C42.372 6.95131 41.9208 5.63771 40.6234 4.99742C40.1454 4.76149 38.626 4.64636 38.0023 4.79869ZM74.9562 4.79517C73.9874 5.03503 73.3462 5.62243 72.9429 6.63908C72.7115 7.22269 72.6747 7.70524 72.6747 10.1564C72.6747 12.8816 72.6892 13.0302 73.0312 13.8034C73.3001 14.4113 73.5397 14.7106 74.0059 15.0209C74.5794 15.4027 74.7138 15.4325 75.8596 15.4325C76.9607 15.4325 77.1702 15.3905 77.7854 15.0474C78.6013 14.5925 79.0122 13.8748 79.0169 12.8959L79.02 12.2533L78.4853 12.2518C78.1913 12.251 77.71 12.2126 77.4158 12.1665L76.8811 12.0826L76.879 12.6076C76.8756 13.4686 76.6135 13.8091 75.9543 13.8091C75.2068 13.8091 75.0323 13.4707 75.0296 12.0166L75.0275 10.9005H77.095H79.1626L79.1597 9.58148C79.1539 6.916 78.7114 5.54694 77.6938 5.04585C77.1051 4.75621 75.6513 4.62296 74.9562 4.79517ZM43.6844 9.44619C43.7262 13.6841 43.7459 13.9756 44.0238 14.4855C44.7312 15.7832 46.7812 15.8144 47.8298 14.5431L48.2007 14.0934L48.2763 14.4247C48.3179 14.607 48.3711 14.8778 48.3945 15.0266C48.4315 15.2616 48.5634 15.3024 49.3982 15.3372L50.3592 15.3771V10.1626V4.94804H49.1472H47.9352V9.05915C47.9352 12.7778 47.9114 13.197 47.6856 13.4502C47.3978 13.7729 46.8091 13.9327 46.5347 13.7625C46.1753 13.54 46.0883 12.5734 46.0849 8.76978L46.0815 4.94804H44.8608H43.6401L43.6844 9.44619ZM56.3727 9.44619C56.4189 13.7728 56.4327 13.9656 56.7338 14.5006C57.4504 15.7744 59.4075 15.8501 60.4224 14.6433C60.8588 14.1245 61.0535 14.1167 61.0535 14.6176C61.0535 15.2849 61.1696 15.3648 62.1382 15.3648H63.0498V10.1564V4.94804H61.8378H60.6258V9.12084C60.6258 12.9235 60.6037 13.3126 60.3762 13.507C59.9729 13.8518 59.4165 13.9276 59.1491 13.6739C58.9415 13.4771 58.9147 12.9639 58.9147 9.19984V4.94804H57.6197H56.3247L56.3727 9.44619ZM39.4406 6.51326C39.8226 6.87569 39.8788 7.36067 39.8788 10.2977C39.8788 12.8181 39.8491 13.1876 39.6204 13.5186C39.2813 14.0097 38.552 13.9837 38.2801 13.4709C38.0504 13.0379 38.0231 7.4482 38.248 6.88732C38.4928 6.27638 39.0176 6.11174 39.4406 6.51326ZM68.4593 6.53761C68.8958 6.87325 69.0848 8.34377 69.0028 10.7652C68.9193 13.2349 68.7405 13.7414 67.9521 13.7414C66.922 13.7414 66.8998 13.6693 66.8998 10.3316C66.8998 7.22499 66.9776 6.77828 67.5771 6.44698C67.9327 6.25055 68.1097 6.26867 68.4593 6.53761ZM76.5165 6.6016C76.6808 6.82387 76.7385 7.24677 76.7385 8.225V9.54765H75.87H75.0015L75.0501 8.14761C75.0823 7.21917 75.1646 6.67222 75.2944 6.52422C75.58 6.19833 76.2502 6.24067 76.5165 6.6016Z" fill="white"/>
</svg>
